# File created by Blade
# Date/Time:  Wed Jan 21 16:33:39 2015
#---------------------------------------------------------
:version 1.10
:name HOM
:units
  mass 1.0
  length 1.000000
  angle deg
:documentation
     Acclaim Skeleton File
:root
   axis xyz
   order TX TY TZ RX RY RZ
   position 0.000000 0.000000 0.000000
   orientation 0 0 0
:bonedata
   begin
      id 1
      name Spine_dum
      direction 0.000000 1.000000 0.000000
      length 7.067664
      axis 0.0 0.0 0.0 xyz
   end
   begin
      id 2
      name LeftUpLeg_dum
      direction 1.000000 0.000000 0.000000
      length 4.013002
      axis 0.0 0.0 0.0 xyz
   end
   begin
      id 3
      name RightUpLeg_dum
      direction -1.000000 0.000000 0.000000
      length 4.013002
      axis 0.0 0.0 0.0 xyz
   end
   begin
      id 4
      name Spine
      direction 0.000000 1.000000 0.000000
      length 0.000000
      axis 0.0 0.0 0.0 xyz
      dof rx ry rz
   end
   begin
      id 5
      name Spine_dum1
      direction 0.000000 1.000000 0.000000
      length 15.039886
      axis 0.0 0.0 0.0 xyz
   end
   begin
      id 6
      name Spine_dum2
      direction 0.000000 1.000000 0.000000
      length 10.530368
      axis 0.0 0.0 0.0 xyz
   end
   begin
      id 7
      name Spine_dum3
      direction 0.000000 1.000000 0.000000
      length 10.530368
      axis 0.0 0.0 0.0 xyz
   end
   begin
      id 8
      name Head
      direction 0.000000 1.000000 0.000000
      length 4.527550
      axis 0.0 0.0 0.0 xyz
      dof rx ry rz
   end
   begin
      id 9
      name LeftShoulder
      direction 1.000000 0.000000 0.000000
      length 7.028855
      axis 0.0 0.0 -90.0 xyz
      dof rx ry rz
   end
   begin
      id 10
      name LeftArm
      direction 1.000000 0.000000 0.000000
      length 10.797705
      axis 0.0 0.0 -90.0 xyz
      dof rx ry rz
   end
   begin
      id 11
      name LeftForeArm
      direction 1.000000 0.000000 0.000000
      length 7.907442
      axis 0.0 0.0 -90.0 xyz
      dof ry rz rx
   end
   begin
      id 12
      name LeftHand
      direction 0.000000 0.000000 0.000000
      length 0.000000
      axis 0.0 0.0 -90.0 xyz
      dof rx ry rz
   end
   begin
      id 13
      name LeftHand_dum1
      direction 0.000000 0.000000 0.000000
      length 0.000000
      axis 0.0 0.0 -90.0 xyz
   end
   begin
      id 14
      name LeftHand_dum2
      direction 1.000000 0.000000 0.000000
      length 3.937000
      axis 0.0 0.0 -90.0 xyz
   end
   begin
      id 15
      name LeftHandThumb1
      direction 0.000000 0.000000 1.000000
      length 3.937000
      axis 0.0 0.0 -90.0 xyz
      dof rx rz ry
   end
   begin
      id 16
      name RightShoulder
      direction -1.000000 0.000000 0.000000
      length 7.028855
      axis 0.0 0.0 90.0 xyz
      dof rx ry rz
   end
   begin
      id 17
      name RightArm
      direction -1.000000 0.000000 0.000000
      length 10.797705
      axis 0.0 0.0 90.0 xyz
      dof rx ry rz
   end
   begin
      id 18
      name RightForeArm
      direction -1.000000 0.000000 0.000000
      length 7.907442
      axis 0.0 0.0 90.0 xyz
      dof ry rz rx
   end
   begin
      id 19
      name RightHand
      direction 0.000000 0.000000 0.000000
      length 0.000000
      axis 0.0 0.0 90.0 xyz
      dof rx ry rz
   end
   begin
      id 20
      name RightHand_dum1
      direction 0.000000 0.000000 0.000000
      length 0.000000
      axis 0.0 0.0 90.0 xyz
   end
   begin
      id 21
      name RightHand_dum2
      direction -1.000000 0.000000 0.000000
      length 3.937000
      axis 0.0 0.0 90.0 xyz
   end
   begin
      id 22
      name RightHandThumb1
      direction 0.000000 0.000000 1.000000
      length 3.937000
      axis 0.0 0.0 90.0 xyz
      dof rx rz ry
   end
   begin
      id 23
      name LeftUpLeg
      direction 0.000000 -1.000000 0.000000
      length 16.899758
      axis 0.0 0.0 0.0 xyz
      dof rx ry rz
   end
   begin
      id 24
      name LeftLeg
      direction 0.000000 -1.000000 0.000000
      length 17.389183
      axis 0.0 0.0 0.0 xyz
      dof rx ry rz
   end
   begin
      id 25
      name LeftFoot
      direction 0.000000 -0.258819 0.965926
      length 4.924528
      axis 15.0 0.0 0.0 xyz
      dof rx ry rz
   end
   begin
      id 26
      name LeftToeBase
      direction 0.000000 0.000000 1.000000
      length 2.952750
      axis 0.0 0.0 0.0 xyz
      dof rx ry rz
   end
   begin
      id 27
      name RightUpLeg
      direction 0.000000 -1.000000 0.000000
      length 16.899758
      axis 0.0 0.0 0.0 xyz
      dof rx ry rz
   end
   begin
      id 28
      name RightLeg
      direction 0.000000 -1.000000 0.000000
      length 17.389183
      axis 0.0 0.0 0.0 xyz
      dof rx ry rz
   end
   begin
      id 29
      name RightFoot
      direction 0.000000 -0.258819 0.965926
      length 4.924528
      axis 15.0 0.0 0.0 xyz
      dof rx ry rz
   end
   begin
      id 30
      name RightToeBase
      direction 0.000000 0.000000 1.000000
      length 2.952750
      axis 0.0 0.0 0.0 xyz
      dof rx ry rz
   end
:hierarchy
   begin
      root Spine_dum LeftUpLeg_dum RightUpLeg_dum
      Spine_dum Spine
      LeftUpLeg_dum LeftUpLeg
      RightUpLeg_dum RightUpLeg
      Spine Spine_dum1 Spine_dum2 Spine_dum3
      Spine_dum1 Head
      Spine_dum2 LeftShoulder
      Spine_dum3 RightShoulder
      LeftShoulder LeftArm
      LeftArm LeftForeArm
      LeftForeArm LeftHand
      LeftHand LeftHand_dum1 LeftHand_dum2
      LeftHand_dum1 LeftHandThumb1
      RightShoulder RightArm
      RightArm RightForeArm
      RightForeArm RightHand
      RightHand RightHand_dum1 RightHand_dum2
      RightHand_dum1 RightHandThumb1
      LeftUpLeg LeftLeg
      LeftLeg LeftFoot
      LeftFoot LeftToeBase
      RightUpLeg RightLeg
      RightLeg RightFoot
      RightFoot RightToeBase
   end

# File created by Blade
# Date/Time:  Wed Jan 21 16:33:30 2015
# Frame Rate: 120.000 fps
#------------------------------------------------------
:FULLY-SPECIFIED
:DEGREES
53
root 19.631818 35.415687 -25.495918 -137.018440 89.219448 -137.223223
Spine -5.408486 2.129657 -0.207307
Head 22.536733 -1.706413 -1.974133
LeftShoulder -14.837923 -21.253452 6.945613
LeftArm -1.097923 3.250392 -26.111948
LeftForeArm 4.711044 -0.000000 0.773346
LeftHand -6.957848 -0.000000 -0.108566
LeftHandThumb1 -26.253704 0.000000 33.147579
RightShoulder -13.104977 -12.460088 -1.730997
RightArm 12.560474 38.383095 41.500952
RightForeArm -25.621663 -0.000000 13.917686
RightHand -9.448056 -0.000000 -12.806304
RightHandThumb1 -24.326973 -0.000000 -32.862282
LeftUpLeg 7.266192 7.383889 0.282003
LeftLeg -0.866914 -0.000000 0.000000
LeftFoot -23.949085 26.738256 -12.009134
LeftToeBase 24.976853 -0.000000 -0.000000
RightUpLeg 6.539824 -7.156052 -2.447312
RightLeg 0.695537 -0.000000 -0.000000
RightFoot -23.797617 -19.952632 17.080710
RightToeBase 23.887562 -0.000000 -0.000000
54
root 19.620850 35.417707 -25.543215 -135.908532 89.272862 -135.915121
Spine -4.990229 2.123959 -0.224971
Head 23.338461 -1.702741 -1.992043
LeftShoulder -14.993320 -20.913805 6.523438
LeftArm -1.239957 2.569825 -27.227126
LeftForeArm 5.134748 -0.000000 0.878013
LeftHand -6.749359 -0.000000 0.216689
LeftHandThumb1 -26.253704 0.000000 33.147579
RightShoulder -13.005024 -12.698938 -1.381095
RightArm 12.879241 38.163249 42.955726
RightForeArm -25.460225 -0.000000 14.284800
RightHand -9.450522 -0.000000 -12.958534
RightHandThumb1 -24.326973 -0.000000 -32.862282
LeftUpLeg 7.415846 7.391652 0.196955
LeftLeg -0.788779 -0.000000 0.000000
LeftFoot -23.987152 26.760330 -12.032499
LeftToeBase 24.833553 -0.000000 -0.000000
RightUpLeg 6.415388 -7.047964 -2.555580
RightLeg 1.258192 -0.000000 -0.000000
RightFoot -24.007157 -19.977173 17.188176
RightToeBase 23.900480 -0.000000 -0.000000
55
root 19.607232 35.419226 -25.591007 -135.354075 89.314892 -135.213745
Spine -4.638279 2.267768 -0.255951
Head 24.104756 -1.838408 -2.036702
LeftShoulder -14.854430 -20.877229 6.089158
LeftArm -1.861996 2.719101 -28.352799
LeftForeArm 4.946978 -0.000000 1.399442
LeftHand -6.853662 -0.000000 0.635563
LeftHandThumb1 -26.253704 0.000000 33.147579
RightShoulder -13.060694 -12.880572 -1.031175
RightArm 13.100874 37.830537 44.381369
RightForeArm -25.317120 0.000000 14.689020
RightHand -9.675470 -0.000000 -13.094769
RightHandThumb1 -24.326973 -0.000000 -32.862282
LeftUpLeg 7.502203 7.307596 0.095633
LeftLeg -0.695149 -0.000000 0.000000
LeftFoot -24.040972 26.855334 -12.051745
LeftToeBase 24.785843 -0.000000 -0.000000
RightUpLeg 6.210283 -6.937120 -2.646553
RightLeg 1.883596 -0.000000 -0.000000
RightFoot -24.266334 -20.058162 17.235824
RightToeBase 23.920228 -0.000000 -0.000000
56
root 19.596337 35.421833 -25.638926 -133.765014 89.346591 -133.431282
Spine -4.215926 2.290331 -0.266721
Head 24.861662 -1.862077 -2.037830
LeftShoulder -14.925031 -20.630487 5.675418
LeftArm -2.173248 2.403276 -29.489293
LeftForeArm 5.152242 -0.000000 1.628072
LeftHand -6.757523 0.000000 0.933616
LeftHandThumb1 -26.253704 0.000000 33.147579
RightShoulder -12.987169 -13.053448 -0.664884
RightArm 13.354132 37.516859 45.772560
RightForeArm -25.258196 -0.000000 14.987151
RightHand -9.603207 -0.000000 -13.260169
RightHandThumb1 -24.326973 -0.000000 -32.862282
LeftUpLeg 7.642763 7.284197 0.027021
LeftLeg -0.606782 -0.000000 0.000000
LeftFoot -24.100559 26.831924 -12.115443
LeftToeBase 24.630034 -0.000000 -0.000000
RightUpLeg 6.045546 -6.865737 -2.734086
RightLeg 2.528224 -0.000000 -0.000000
RightFoot -24.497770 -20.035829 17.384488
RightToeBase 23.729811 -0.000000 -0.000000
57
root 19.582973 35.423365 -25.692321 -133.513367 89.395623 -132.992870
Spine -3.776723 2.438613 -0.309607
Head 25.571998 -2.017644 -2.038227
LeftShoulder -14.911129 -20.372193 5.239373
LeftArm -2.389297 2.069058 -30.669899
LeftForeArm 5.255447 -0.000000 1.798858
LeftHand -6.629525 -0.000000 1.017218
LeftHandThumb1 -26.253704 0.000000 33.147579
RightShoulder -13.101139 -13.290324 -0.233201
RightArm 13.761562 37.201237 47.238607
RightForeArm -25.250362 0.000000 15.262404
RightHand -9.728411 0.000000 -13.354347
RightHandThumb1 -24.326973 -0.000000 -32.862282
LeftUpLeg 7.759200 7.293644 -0.078191
LeftLeg -0.496771 -0.000000 0.000000
LeftFoot -24.171379 26.844221 -12.132786
LeftToeBase 24.658888 -0.000000 -0.000000
RightUpLeg 5.816357 -6.706997 -2.841137
RightLeg 3.275900 -0.000000 -0.000000
RightFoot -24.800056 -20.132832 17.458154
RightToeBase 23.819442 -0.000000 -0.000000
